{
	"patcher" : 	{
		"fileversion" : 1,
		"appversion" : 		{
			"major" : 7,
			"minor" : 3,
			"revision" : 4,
			"architecture" : "x86",
			"modernui" : 1
		}
,
		"rect" : [ -1496.0, 177.0, 1112.0, 771.0 ],
		"editing_bgcolor" : [ 0.9, 0.9, 0.9, 1.0 ],
		"bglocked" : 0,
		"openinpresentation" : 0,
		"default_fontsize" : 12.0,
		"default_fontface" : 0,
		"default_fontname" : "Arial",
		"gridonopen" : 1,
		"gridsize" : [ 15.0, 15.0 ],
		"gridsnaponopen" : 1,
		"objectsnaponopen" : 1,
		"statusbarvisible" : 2,
		"toolbarvisible" : 1,
		"lefttoolbarpinned" : 0,
		"toptoolbarpinned" : 0,
		"righttoolbarpinned" : 0,
		"bottomtoolbarpinned" : 0,
		"toolbars_unpinned_last_save" : 0,
		"tallnewobj" : 0,
		"boxanimatetime" : 200,
		"enablehscroll" : 1,
		"enablevscroll" : 1,
		"devicewidth" : 0.0,
		"description" : "",
		"digest" : "",
		"tags" : "",
		"style" : "",
		"subpatcher_template" : "",
		"boxes" : [ 			{
				"box" : 				{
					"code" : "//get the current position in scalar values\r\nx = in2.r;\r\ny = in2.g;\r\nz = in2.b;\r\n\r\n//check if the tracer is in the holding area\r\nif(x == -10 && y == -10 && z == -10)\r\n{\r\n\tout1 = vec(x,y,z,1);\r\n}\r\nelse\r\n{\r\n//check if epsilon > 0\r\nif(epsilon > 0.) {\r\n\t//calculate the distance from the central pole (x = 0 & y = 0)\r\n\tmyRadius = sqrt(pow(x,2) + pow(y, 2));\r\n\r\n\t/*---------------------\r\n\tcalculate U component\r\n\t------------------------*/\r\n\t\r\n\t//start with the last terms\r\n\tuEnd = 1 - (beta * z);\r\n\t\r\n\t//now start working out the interior terms\r\n\tuRadius = ((pow(radius, 2) - pow(myRadius, 2)) / 2); //(R^2 - r^2) /  2\r\n\tuTime = gamma * cos(sigma * t);\r\n\tuSymmetry = y * (y - y0); //there's a missing ) in the written equation, best guess is that it belongs here\r\n\tuInternal = uSymmetry + uTime - uRadius;\r\n\t\r\n\t//multiply everything together and you've made a u component\r\n\tu = epsilon * uInternal * uEnd;\r\n\t\r\n\t/*-------------------------\r\n\t calculate v component\r\n\t-------------------------*/\r\n\t\r\n\t//start with last terms again\r\n\tvEnd = 1 - (beta * z);\r\n\t\r\n\t//now the internal terms\r\n\tvTime = gamma * cos(sigma * t);\r\n\tvSymmetry = y - y0;\r\n\t//no radius term in the v component\r\n\tvInternal = vSymmetry + vTime;\r\n\t\r\n\t//multiply to complete v\r\n\tv = epsilon * x * vInternal * vEnd;\r\n\t\r\n\tw = 0; //no w component \r\n\t//it feels left out of the perturbed fun\r\n\t\r\n\tout1 = vec(u,v,w,1);\r\n\r\n} else {\r\n\tout1 = vec(0,0,0,1);\r\n}\r\n}",
					"fontface" : 0,
					"fontname" : "Arial",
					"fontsize" : 12.0,
					"id" : "obj-25",
					"maxclass" : "codebox",
					"numinlets" : 2,
					"numoutlets" : 1,
					"outlettype" : [ "" ],
					"patching_rect" : [ 50.0, 67.0, 771.0, 661.0 ],
					"style" : ""
				}

			}
, 			{
				"box" : 				{
					"id" : "obj-23",
					"maxclass" : "newobj",
					"numinlets" : 0,
					"numoutlets" : 1,
					"outlettype" : [ "" ],
					"patching_rect" : [ 877.0, 169.0, 101.0, 22.0 ],
					"style" : "",
					"text" : "param gamma 0."
				}

			}
, 			{
				"box" : 				{
					"id" : "obj-22",
					"maxclass" : "newobj",
					"numinlets" : 0,
					"numoutlets" : 1,
					"outlettype" : [ "" ],
					"patching_rect" : [ 877.0, 140.0, 85.0, 22.0 ],
					"style" : "",
					"text" : "param beta 0."
				}

			}
, 			{
				"box" : 				{
					"id" : "obj-21",
					"maxclass" : "newobj",
					"numinlets" : 0,
					"numoutlets" : 1,
					"outlettype" : [ "" ],
					"patching_rect" : [ 877.0, 113.0, 65.0, 22.0 ],
					"style" : "",
					"text" : "param t 0."
				}

			}
, 			{
				"box" : 				{
					"id" : "obj-20",
					"maxclass" : "newobj",
					"numinlets" : 0,
					"numoutlets" : 1,
					"outlettype" : [ "" ],
					"patching_rect" : [ 877.0, 86.0, 93.0, 22.0 ],
					"style" : "",
					"text" : "param sigma 0."
				}

			}
, 			{
				"box" : 				{
					"id" : "obj-17",
					"maxclass" : "newobj",
					"numinlets" : 0,
					"numoutlets" : 1,
					"outlettype" : [ "" ],
					"patching_rect" : [ 877.0, 58.0, 74.0, 22.0 ],
					"style" : "",
					"text" : "param y0 0."
				}

			}
, 			{
				"box" : 				{
					"id" : "obj-14",
					"maxclass" : "comment",
					"numinlets" : 1,
					"numoutlets" : 0,
					"patching_rect" : [ 864.0, 13.0, 150.0, 20.0 ],
					"style" : "",
					"text" : "For perturbed only"
				}

			}
, 			{
				"box" : 				{
					"id" : "obj-12",
					"maxclass" : "comment",
					"numinlets" : 1,
					"numoutlets" : 0,
					"patching_rect" : [ 635.0, 14.0, 150.0, 20.0 ],
					"style" : "",
					"text" : "For both cases"
				}

			}
, 			{
				"box" : 				{
					"id" : "obj-10",
					"maxclass" : "newobj",
					"numinlets" : 0,
					"numoutlets" : 1,
					"outlettype" : [ "" ],
					"patching_rect" : [ 654.0, 32.0, 94.0, 22.0 ],
					"style" : "",
					"text" : "param radius 1."
				}

			}
, 			{
				"box" : 				{
					"id" : "obj-9",
					"maxclass" : "newobj",
					"numinlets" : 0,
					"numoutlets" : 1,
					"outlettype" : [ "" ],
					"patching_rect" : [ 877.0, 32.0, 99.0, 22.0 ],
					"style" : "",
					"text" : "param epsilon 0."
				}

			}
, 			{
				"box" : 				{
					"id" : "obj-8",
					"maxclass" : "comment",
					"numinlets" : 1,
					"numoutlets" : 0,
					"patching_rect" : [ 288.0, 14.0, 150.0, 20.0 ],
					"style" : "",
					"text" : "Positions in"
				}

			}
, 			{
				"box" : 				{
					"id" : "obj-6",
					"maxclass" : "comment",
					"numinlets" : 1,
					"numoutlets" : 0,
					"patching_rect" : [ 82.0, 14.0, 150.0, 20.0 ],
					"style" : "",
					"text" : "Timing and size in"
				}

			}
, 			{
				"box" : 				{
					"id" : "obj-1",
					"maxclass" : "newobj",
					"numinlets" : 0,
					"numoutlets" : 1,
					"outlettype" : [ "" ],
					"patching_rect" : [ 50.0, 14.0, 30.0, 22.0 ],
					"style" : "",
					"text" : "in 1"
				}

			}
, 			{
				"box" : 				{
					"id" : "obj-2",
					"maxclass" : "newobj",
					"numinlets" : 0,
					"numoutlets" : 1,
					"outlettype" : [ "" ],
					"patching_rect" : [ 254.0, 14.0, 30.0, 22.0 ],
					"style" : "",
					"text" : "in 2"
				}

			}
, 			{
				"box" : 				{
					"id" : "obj-4",
					"maxclass" : "newobj",
					"numinlets" : 1,
					"numoutlets" : 0,
					"patching_rect" : [ 50.0, 741.0, 37.0, 22.0 ],
					"style" : "",
					"text" : "out 1"
				}

			}
 ],
		"lines" : [ 			{
				"patchline" : 				{
					"destination" : [ "obj-25", 0 ],
					"source" : [ "obj-1", 0 ]
				}

			}
, 			{
				"patchline" : 				{
					"destination" : [ "obj-25", 1 ],
					"midpoints" : [ 263.5, 48.0, 621.0, 48.0, 621.0, 59.0, 811.5, 59.0 ],
					"source" : [ "obj-2", 0 ]
				}

			}
, 			{
				"patchline" : 				{
					"destination" : [ "obj-4", 0 ],
					"source" : [ "obj-25", 0 ]
				}

			}
 ],
		"autosave" : 0
	}

}
